<svg height="512pt" viewBox="0 0 512.00012 512" width="512pt" xmlns="http://www.w3.org/2000/svg"><path d="m293.746094 62.851562c63.789062 63.804688 63.789062 167.253907 0 231.058594-63.785156 63.804688-167.203125 63.804688-230.992188 0-63.785156-63.804687-63.785156-167.253906 0-231.058594 63.789063-63.804687 167.207032-63.804687 230.992188 0zm0 0" fill="#6cf"/><path d="m62.761719 62.84375c-.003907.003906-.003907.007812-.007813.007812-63.785156 63.804688-63.785156 167.253907 0 231.058594 63.789063 63.804688 167.207032 63.804688 230.992188 0 .015625-.015625.027344-.027344.039062-.042968zm0 0" fill="#b2e5ff"/><path d="m333.15625 348.054688c-3.839844 0-7.679688-1.464844-10.609375-4.394532l-38.484375-38.5c-5.855469-5.855468-5.855469-15.351562.003906-21.210937 5.859375-5.855469 15.355469-5.855469 21.210938.003906l38.488281 38.5c5.855469 5.855469 5.851563 15.351563-.003906 21.210937-2.929688 2.925782-6.769531 4.390626-10.605469 4.390626zm0 0" fill="#b6bdbf"/><path d="m283.972656 284.054688c-5.757812 5.863281-5.734375 15.28125.089844 21.105468l38.484375 38.5c2.929687 2.929688 6.769531 4.394532 10.609375 4.394532 3.796875 0 7.59375-1.4375 10.507812-4.304688zm0 0" fill="#c2c9cc"/><path d="m178.25 356.761719c-47.636719 0-92.417969-18.554688-126.101562-52.246094-69.53125-69.550781-69.53125-182.71875 0-252.269531 33.683593-33.691406 78.46875-52.246094 126.101562-52.246094 47.636719 0 92.421875 18.554688 126.105469 52.246094 69.527343 69.550781 69.527343 182.71875 0 252.269531-33.683594 33.691406-78.46875 52.246094-126.105469 52.246094zm0-326.761719c-39.621094 0-76.871094 15.433594-104.886719 43.457031-57.839843 57.855469-57.839843 151.992188 0 209.847657 28.015625 28.027343 65.265625 43.460937 104.886719 43.460937s76.871094-15.433594 104.890625-43.460937c57.839844-57.855469 57.839844-151.992188 0-209.847657-28.019531-28.023437-65.269531-43.457031-104.890625-43.457031zm0 0" fill="#dae3e5"/><path d="m294.671875 294.558594 38.484375 38.496094" fill="#fff"/><path d="m495.628906 416.367188-109.929687-109.96875-79.207031 79.203124 109.917968 109.957032c10.578125 10.582031 24.644532 16.410156 39.609375 16.410156 14.964844 0 29.03125-5.828125 39.609375-16.410156 21.828125-21.832032 21.828125-57.355469 0-79.191406zm0 0" fill="#cc0702"/><g fill="#0059b2"><path d="m112.351562 155.992188c.628907 7 7.082032 13.425781 14.945313 13.425781 8.285156 0 15-6.550781 15-14.832031 0-15.859376-12.898437-28.59375-28.75-28.59375h-21.714844c-15.851562 0-28.820312 12.242187-28.820312 28.097656v4.679687c0 11.695313 6.875 22.128907 17.6875 26.585938l31.308593 12.945312v3.6875h-18.953124c-.480469-8-7.035157-14.351562-15.007813-14.351562-8.285156 0-15.035156 6.4375-15.035156 14.71875v.316406c0 15.855469 12.96875 29.316406 28.820312 29.316406h21.714844c15.851563 0 28.460937-13.460937 28.460937-29.316406v-5.203125c0-11.695312-6.878906-22.128906-17.691406-26.585938l-31.304687-12.945312v-1.949219h19.339843zm0 0"/><path d="m199.828125 155.992188c8.285156 0 15-6.71875 15-15 0-8.285157-6.714844-15-15-15h-37.984375c-8.285156 0-14.835938 6.058593-14.835938 14.34375v76.089843c0 8.285157 6.550782 15.5625 14.835938 15.5625h37.984375c8.285156 0 15-6.71875 15-15 0-8.285156-6.714844-15-15-15h-22.824219v-8h12.761719c8.28125 0 15-6.714843 15-15 0-8.28125-6.71875-14.996093-15-14.996093h-12.761719v-8zm0 0"/><path d="m293 140.992188c0-8.285157-6.71875-15-15-15h-43c-8.28125 0-14.996094 6.714843-14.996094 15v75.996093c0 8.28125 6.714844 15 14.996094 15h43c8.28125 0 15-6.71875 15-15zm-29 60.996093h-14v-45.996093h14zm0 0"/></g><path d="m283.179688 283.261719c-.011719.015625-.027344.03125-.039063.042969-28.019531 28.027343-65.269531 43.460937-104.890625 43.460937s-76.871094-15.433594-104.886719-43.460937c-57.839843-57.855469-57.839843-151.992188 0-209.847657 0-.003906.003907-.003906.003907-.007812l-21.210938-21.210938c-.003906.003907-.003906.007813-.007812.007813-69.53125 69.550781-69.53125 182.71875 0 252.269531 33.683593 33.691406 78.46875 52.246094 126.101562 52.246094 47.636719 0 92.421875-18.554688 126.105469-52.246094.011719-.011719.023437-.027344.039062-.039063zm0 0" fill="#e6eff2"/><path d="m306.492188 385.601562 109.917968 109.957032c10.578125 10.582031 24.644532 16.410156 39.609375 16.410156 14.929688 0 28.960938-5.800781 39.53125-16.335938l-149.542969-149.542968zm0 0" fill="#ff2a00"/><path d="m124.269531 171.234375-31.257812-13.296875v-1.945312h19.339843c.628907 7 7.082032 13.425781 14.945313 13.425781 8.285156 0 15-6.550781 15-14.832031 0-15.859376-12.898437-28.59375-28.75-28.59375h-21.714844c-15.851562 0-28.820312 12.242187-28.820312 28.097656v4.679687c0 7.414063 2.675781 14.21875 7.453125 20.21875h64.203125c-2.8125-4-6.296875-6.0625-10.398438-7.753906zm0 0" fill="#176ee5"/><path d="m189.765625 163.992188h-12.761719v-8h22.824219c8.285156 0 15-6.71875 15-15 0-8.285157-6.714844-15-15-15h-37.984375c-8.285156 0-14.835938 6.058593-14.835938 14.34375v38.652343h57.730469c-.265625-9-6.859375-14.996093-14.972656-14.996093zm0 0" fill="#176ee5"/><path d="m250 155.992188h14v22.996093h29v-38.199219c0-8.28125-6.816406-14.796874-15.097656-14.796874h-43c-8.28125 0-14.898438 6.511718-14.898438 14.796874v38.199219h29.996094zm0 0" fill="#176ee5"/><path d="m385.699219 306.398438c-5.84375-5.84375-13.613281-9.0625-21.878907-9.0625-8.265624 0-16.035156 3.21875-21.878906 9.0625l-35.449218 35.460937c-12.058594 12.058594-12.058594 31.683594 0 43.742187l32.636718 32.648438 81.960938-76.449219zm0 0" fill="#dae3e5"/><path d="m324.132812 324.214844-17.640624 17.644531c-12.058594 12.058594-12.058594 31.683594 0 43.742187l32.636718 32.648438 40.894532-38.144531zm0 0" fill="#e6eff2"/></svg>